<svg width="32" height="24" viewBox="0 0 32 24" fill="none" xmlns="http://www.w3.org/2000/svg">
<path d="M6.00017 0C5.68017 0 5.38017 0.16 5.18017 0.42L0.180165 7.42L0.000165068 7.96C-0.0198349 10.18 1.78017 12 4.00017 12C5.20017 12 6.26017 11.48 7.00017 10.64C7.74017 11.48 8.80017 12 10.0002 12C11.2002 12 12.2602 11.48 13.0002 10.64C13.7402 11.48 14.8002 12 16.0002 12C17.2002 12 18.2602 11.48 19.0002 10.64C19.7402 11.48 20.8002 12 22.0002 12C23.2002 12 24.2602 11.48 25.0002 10.64C25.7402 11.48 26.8002 12 28.0002 12C30.2202 12 32.0202 10.18 32.0002 7.96L31.8202 7.42L26.8202 0.42C26.6202 0.16 26.3202 0 26.0002 0H9.00017H6.00017ZM7.01917 12.324C5.58767 13.343 3.62767 13.5045 2.00017 12.8535V22C2.00017 23.104 2.89617 24 4.00017 24H20.0002V17C20.0002 15.3431 21.3433 14 23.0002 14C24.657 14 26.0002 15.3431 26.0002 17V24H28.0002C29.1042 24 30.0002 23.104 30.0002 22V12.848C28.3807 13.487 26.4307 13.3545 25.0037 12.3285C23.2597 13.5345 20.7742 13.547 19.0272 12.3395C17.2722 13.503 14.7707 13.569 13.0177 12.3325C11.2722 13.5125 8.76217 13.573 7.01917 12.324ZM6.00017 16C6.00017 14.8954 6.8956 14 8.00017 14H12.0002C13.1047 14 14.0002 14.8954 14.0002 16V18C14.0002 19.1046 13.1047 20 12.0002 20H8.00017C6.8956 20 6.00017 19.1046 6.00017 18V16Z" fill="#C4C4C4"/>
</svg>
