<svg width="24" height="24" viewBox="0 0 24 24" fill="none" xmlns="http://www.w3.org/2000/svg">
<path d="M22.6863 8.53104H20.5895L17.2042 0.767381C16.9011 0.0669001 16.1684 -0.19578 15.5621 0.15446L15.2842 0.300394C14.6779 0.650634 14.4505 1.49705 14.7537 2.19753L17.5074 8.56023H6.46737L9.22105 2.19753C9.52421 1.49705 9.27158 0.650634 8.69053 0.300394L8.41263 0.15446C7.80632 -0.19578 7.07368 0.0960868 6.77053 0.767381L3.41053 8.53104H1.31368C0.581053 8.53104 0 9.20234 0 10.0488V10.3114C0 11.1578 0.581053 11.8291 1.31368 11.8291L3.10737 21.9861C3.30947 23.1536 4.19368 24 5.22947 24H18.7705C19.8063 24 20.6905 23.1536 20.8926 21.9861L22.6863 11.8291C23.4189 11.8291 24 11.1578 24 10.3114V10.0488C24 9.23153 23.4189 8.53104 22.6863 8.53104ZM19.0737 21.5775C19.0484 21.7526 18.9221 21.8694 18.7705 21.8694H5.22947C5.07789 21.8694 4.95158 21.7526 4.92632 21.5775L3.20842 11.8291H20.8168L19.0737 21.5775Z" fill="white"/>
<path d="M11.7726 20.4975H12.2021C12.6569 20.4975 13.0358 20.0597 13.0358 19.5343V14.1931C13.0358 13.6678 12.6569 13.23 12.2021 13.23H11.7726C11.3179 13.23 10.939 13.6678 10.939 14.1931V19.5343C10.939 20.0597 11.3179 20.4975 11.7726 20.4975Z" fill="white"/>
<path d="M7.30106 20.4975H7.73054C8.18527 20.4975 8.56422 20.0597 8.56422 19.5343V14.1931C8.56422 13.6678 8.18527 13.23 7.73054 13.23H7.30106C6.84633 13.23 6.46738 13.6678 6.46738 14.1931V19.5343C6.44212 20.0597 6.82106 20.4975 7.30106 20.4975Z" fill="white"/>
<path d="M16.2695 20.4975H16.6989C17.1537 20.4975 17.5326 20.0597 17.5326 19.5343V14.1931C17.5326 13.6678 17.1537 13.23 16.6989 13.23H16.2695C15.8147 13.23 15.4358 13.6678 15.4358 14.1931V19.5343C15.4358 20.0597 15.8147 20.4975 16.2695 20.4975Z" fill="white"/>
</svg>
