<svg width="20" height="20" viewBox="0 0 20 20" fill="none" xmlns="http://www.w3.org/2000/svg">
<path d="M12.0207 10.0006L19.582 2.43871C20.1393 1.88056 20.1393 0.97676 19.582 0.418612C19.023 -0.139537 18.1187 -0.139537 17.5614 0.418612L10 7.97997L2.43864 0.418612C1.87993 -0.139537 0.976973 -0.139537 0.417974 0.418612C-0.139325 0.97676 -0.139325 1.88056 0.417974 2.43871L7.97933 10.0006L0.417974 17.5623C-0.139325 18.1196 -0.139325 19.024 0.417974 19.5829C0.698182 19.8615 1.0631 20.0011 1.42831 20.0011C1.79465 20.0011 2.15985 19.8617 2.43836 19.5829L9.99972 12.0216L17.5611 19.5829C17.8396 19.8615 18.2062 20.0011 18.5711 20.0011C18.9363 20.0011 19.3013 19.8617 19.5815 19.5829C20.1388 19.024 20.1388 18.1196 19.5815 17.5623L12.0207 10.0006Z" fill="#C4C4C4"/>
</svg>
