<svg width="34" height="34" viewBox="0 0 34 34" fill="none" xmlns="http://www.w3.org/2000/svg">
<path fill-rule="evenodd" clip-rule="evenodd" d="M24.7447 5.40931C22.4522 3.87757 19.7571 3.06 17 3.06C13.3029 3.06 9.7572 4.52867 7.14294 7.14293C4.52868 9.75719 3.06001 13.3029 3.06001 17C3.06001 19.7571 3.87757 22.4522 5.40932 24.7446C6.94107 27.0371 9.1182 28.8238 11.6654 29.8789C14.2126 30.934 17.0155 31.21 19.7196 30.6721C22.4237 30.1343 24.9075 28.8066 26.8571 26.8571C28.8066 24.9075 30.1343 22.4237 30.6722 19.7196C31.21 17.0155 30.934 14.2126 29.8789 11.6654C28.8238 9.11819 27.0371 6.94106 24.7447 5.40931ZM7.55531 2.86502C10.351 0.997033 13.6377 0 17 0C21.5087 0 25.8327 1.79107 29.0208 4.97918C32.2089 8.1673 34 12.4913 34 17C34 20.3623 33.003 23.6491 31.135 26.4447C29.267 29.2403 26.612 31.4193 23.5056 32.706C20.3993 33.9926 16.9811 34.3293 13.6835 33.6733C10.3858 33.0174 7.35669 31.3983 4.97919 29.0208C2.6017 26.6433 0.982607 23.6142 0.326658 20.3165C-0.329291 17.0189 0.00736581 13.6007 1.29406 10.4944C2.58075 7.38804 4.75968 4.733 7.55531 2.86502ZM15.0436 22.1248C15.493 21.6811 16.0966 21.4286 16.728 21.42C17.3599 21.434 17.9618 21.6922 18.4074 22.1403C18.8531 22.5885 19.1078 23.1919 19.1182 23.8238C19.115 24.4604 18.8591 25.0697 18.4067 25.5177C17.9543 25.9656 17.3425 26.2155 16.7059 26.2123C16.0693 26.2092 15.46 25.9532 15.0121 25.5008C14.5641 25.0484 14.3143 24.4366 14.3174 23.8C14.334 23.1688 14.5943 22.5684 15.0436 22.1248ZM11.9374 10.115C14.6608 7.01422 19.38 7.07202 21.862 10.2C23.171 11.8252 23.3818 14.7662 20.9644 16.3064C20.6366 16.5143 20.3026 16.7138 19.9688 16.9131C19.8768 16.9681 19.7847 17.0231 19.6928 17.0782C19.142 17.408 18.6558 17.748 18.7 18.5232C18.7053 18.6227 18.6887 18.7221 18.6513 18.8144C18.6139 18.9067 18.5567 18.9897 18.4838 19.0575C18.4108 19.1253 18.3238 19.1762 18.229 19.2067C18.1342 19.2371 18.0338 19.2464 17.935 19.2338H16.7008H15.5958C14.9838 19.2576 14.7424 18.9244 14.7186 18.36C14.6744 17.7288 14.8073 17.0978 15.1022 16.538C15.3972 15.9782 15.8424 15.5117 16.388 15.1912C16.6731 15.0083 16.9664 14.8376 17.2597 14.667C17.6204 14.4571 17.9809 14.2474 18.326 14.0148C19.3596 13.3348 19.3222 12.3148 18.2648 11.6348C17.6986 11.2578 17.0117 11.1066 16.3395 11.2111C15.6673 11.3156 15.0587 11.6681 14.6336 12.1992C13.5689 13.4526 13.3868 13.3118 12.5784 12.6866C12.4548 12.591 12.3166 12.4842 12.1584 12.3692C10.965 11.5022 10.829 11.373 11.9374 10.115Z" fill="white"/>
</svg>
