<svg width="65" height="124" viewBox="0 0 65 124" fill="none" xmlns="http://www.w3.org/2000/svg">
<path fill-rule="evenodd" clip-rule="evenodd" d="M10 0C4.47715 0 0 4.47715 0 10V13H65V10C65 4.47715 60.5228 0 55 0H10ZM27.4999 4C26.1192 4 24.9999 5.11929 24.9999 6.5C24.9999 7.88071 26.1192 9 27.4999 9H37.4999C38.8806 9 39.9999 7.88071 39.9999 6.5C39.9999 5.11929 38.8806 4 37.4999 4H27.4999Z" fill="#444444"/>
<path fill-rule="evenodd" clip-rule="evenodd" d="M10 124C4.47715 124 0 119.523 0 114V111H65V114C65 119.523 60.5228 124 55 124H10ZM32.4999 122C34.9852 122 36.9999 119.985 36.9999 117.5C36.9999 115.015 34.9852 113 32.4999 113C30.0146 113 27.9999 115.015 27.9999 117.5C27.9999 119.985 30.0146 122 32.4999 122Z" fill="#444444"/>
<path fill-rule="evenodd" clip-rule="evenodd" d="M65 17H0V107H65V17ZM55.9487 47.8457L51.9827 63.5372C51.7092 64.4681 50.8886 65 50.0681 65H29.2809C28.4603 65 27.6398 64.4681 27.3663 63.5372L23.2635 47.8457V47.7128L22.3062 43.9894H18.2035C17.1094 43.9894 16.1521 43.0585 16.1521 41.9947C16.1521 40.9309 17.1094 40 18.2035 40H23.8105C24.6311 40 25.4516 40.5319 25.7252 41.4628L26.6825 45.3191H53.8973C54.5811 45.3191 55.1281 45.5851 55.5384 46.117C55.9487 46.6489 56.0854 47.3138 55.9487 47.8457ZM31.989 74C33.9641 74 35.5651 72.433 35.5651 70.5C35.5651 68.567 33.9641 67 31.989 67C30.014 67 28.4129 68.567 28.4129 70.5C28.4129 72.433 30.014 74 31.989 74ZM49.8695 70.5C49.8695 72.433 48.2684 74 46.2934 74C44.3184 74 42.7173 72.433 42.7173 70.5C42.7173 68.567 44.3184 67 46.2934 67C48.2684 67 49.8695 68.567 49.8695 70.5ZM20.2391 49C20.2391 47.8571 19.4066 47 18.2965 47H10.9425C9.83249 47 8.99997 47.8571 8.99997 49C8.99997 50.1429 9.83249 51 10.9425 51H18.2965C19.4066 51 20.2391 50.1429 20.2391 49ZM19.4949 57H12.8094C11.8003 57 11.0434 56.25 11.0434 55.5C11.0434 54.6429 11.8003 54 12.8094 54H19.4949C20.504 54 21.2608 54.6429 21.2608 55.5C21.2608 56.3571 20.504 57 19.4949 57ZM14.0076 64H21.3616C22.4717 64 23.3042 63.1429 23.3042 62C23.3042 60.8571 22.4717 60 21.3616 60H14.0076C12.8976 60 12.0651 60.8571 12.0651 62C12.0651 63.1429 13.0364 64 14.0076 64ZM54.2563 83.7015C55.7876 83.7015 56.9999 84.9067 56.9999 86.4291V94.9925C56.9999 97.3396 56.0428 99.6231 54.3201 101.336C52.6612 103.049 50.3642 104 47.9396 104H43.6008C40.4744 104 37.6032 102.604 35.6252 100.257L28.6705 91.9478C28.16 91.3769 27.9048 90.5522 28.0324 89.791C28.16 89.0298 28.6067 88.3321 29.2447 87.8881C30.3294 87.1269 31.7969 87.2537 32.754 88.2052L35.5614 90.9328C35.689 90.9963 35.8804 91.0597 36.008 90.9963C36.1995 90.9328 36.2633 90.7425 36.2633 90.6157V72.7276C36.2633 71.2052 37.4756 70 39.0069 70C39.7087 70 40.4106 70.3172 40.921 70.8246C41.4315 71.3955 41.7505 72.0299 41.7505 72.791V81.9254C42.2609 81.1642 43.1542 80.6567 44.1113 80.6567C45.6426 80.6567 46.8549 81.8619 46.8549 83.3843V83.4478C47.3015 82.6866 48.1948 82.1791 49.1519 82.1791C50.6832 82.1791 51.8955 83.3843 51.8955 84.9067V84.9701C52.4059 84.209 53.2992 83.7015 54.2563 83.7015Z" fill="#444444"/>
</svg>
