<svg width="23" height="30" viewBox="0 0 23 30" fill="none" xmlns="http://www.w3.org/2000/svg">
<path d="M10.7224 0.00806343C5.38335 0.246297 0.860434 4.33031 0.112283 9.60548C-0.159772 11.5114 0.0782759 13.3151 0.656393 14.9487C1.54057 17.4672 3.30893 19.5432 5.55338 20.8705L10.8585 29.8213C10.9945 30.0596 11.3686 30.0596 11.5046 29.8213L16.6736 20.9386C20.0743 19.0327 22.3528 15.3912 22.3528 11.2051C22.3868 4.84081 17.1157 -0.23017 10.7224 0.00806343ZM11.9127 20.0537C6.36955 20.4962 1.81263 15.9017 2.22071 10.3542C2.56078 5.99794 6.09749 2.45847 10.4504 2.11813C15.9935 1.6757 20.5504 6.27021 20.1423 11.8177C19.8023 16.1739 16.2655 19.7134 11.9127 20.0537Z" fill="#6AA434"/>
<path d="M10.7444 3.12823L4.16961 9.11249C3.82772 9.42595 4.03812 10.0244 4.4852 10.0244H5.22158C5.48457 10.0244 5.69497 10.2524 5.69497 10.5373V16.6071C5.69497 16.892 5.90536 17.12 6.16835 17.12H7.7463C8.00929 17.12 8.21969 16.892 8.21969 16.6071V13.9284V12.2471C8.21969 11.9621 8.43008 11.7342 8.69307 11.7342H10.271C10.534 11.7342 10.7444 11.9621 10.7444 12.2471V13.9284V16.6071C10.7444 16.892 10.9548 17.12 11.2178 17.12H15.8991C16.162 17.12 16.3724 16.892 16.3724 16.6071V10.5373C16.3724 10.2524 16.5828 10.0244 16.8458 10.0244H17.6348C18.0819 10.0244 18.2923 9.42595 17.9504 9.11249L11.3756 3.12823C11.1915 2.95726 10.9285 2.95726 10.7444 3.12823ZM14.4 14.4413H12.822C12.5591 14.4413 12.3487 14.2134 12.3487 13.9284V12.2186C12.3487 11.9336 12.5591 11.7057 12.822 11.7057H14.4C14.663 11.7057 14.8734 11.9336 14.8734 12.2186V13.9284C14.8734 14.2134 14.663 14.4413 14.4 14.4413Z" fill="#6AA434"/>
</svg>
