<svg width="20" height="20" viewBox="0 0 20 20" fill="none" xmlns="http://www.w3.org/2000/svg">
<path d="M9.99997 7.32221C10.767 7.32221 11.3889 6.70038 11.3889 5.93332C11.3889 5.16626 10.767 4.54443 9.99997 4.54443C9.23291 4.54443 8.61108 5.16626 8.61108 5.93332C8.61108 6.70038 9.23291 7.32221 9.99997 7.32221Z" fill="#C4C4C4"/>
<path d="M11.1555 9.73905V14.3168C11.1555 14.6233 11.0338 14.9172 10.8171 15.1339C10.6004 15.3506 10.3064 15.4724 9.99998 15.4724C9.6935 15.4724 9.39958 15.3506 9.18288 15.1339C8.96617 14.9172 8.84442 14.6233 8.84442 14.3168V9.73905C8.84442 9.43258 8.96617 9.13866 9.18288 8.92195C9.39958 8.70524 9.6935 8.5835 9.99998 8.5835C10.3064 8.5835 10.6004 8.70524 10.8171 8.92195C11.0338 9.13866 11.1555 9.43258 11.1555 9.73905Z" fill="#C4C4C4"/>
<path d="M10 0C4.47733 0 0 4.47733 0 10C0 15.5227 4.47733 20 10 20C15.5227 20 20 15.5227 20 10C20 4.47733 15.5227 0 10 0ZM15.8138 15.8138C15.0527 16.588 14.1458 17.2038 13.1454 17.6256C12.1451 18.0475 11.0711 18.2671 9.98548 18.2717C8.89984 18.2763 7.82402 18.0659 6.82012 17.6526C5.81622 17.2393 4.90412 16.6312 4.13644 15.8636C3.36877 15.0959 2.76072 14.1838 2.3474 13.1799C1.93407 12.176 1.72366 11.1002 1.72828 10.0145C1.73291 8.92887 1.9525 7.85489 2.37436 6.85455C2.79623 5.85421 3.41203 4.94732 4.18622 4.18622C4.94732 3.41203 5.85421 2.79623 6.85455 2.37436C7.85489 1.9525 8.92887 1.73291 10.0145 1.72828C11.1002 1.72366 12.176 1.93407 13.1799 2.3474C14.1838 2.76072 15.0959 3.36877 15.8636 4.13644C16.6312 4.90412 17.2393 5.81622 17.6526 6.82012C18.0659 7.82402 18.2763 8.89984 18.2717 9.98548C18.2671 11.0711 18.0475 12.1451 17.6256 13.1454C17.2038 14.1458 16.588 15.0527 15.8138 15.8138Z" fill="#C4C4C4"/>
<path d="M10 0C4.47733 0 0 4.47733 0 10C0 15.5227 4.47733 20 10 20C15.5227 20 20 15.5227 20 10C20 4.47733 15.5227 0 10 0ZM15.8138 15.8138C15.0527 16.588 14.1458 17.2038 13.1454 17.6256C12.1451 18.0475 11.0711 18.2671 9.98548 18.2717C8.89984 18.2763 7.82402 18.0659 6.82012 17.6526C5.81622 17.2393 4.90412 16.6312 4.13644 15.8636C3.36877 15.0959 2.76072 14.1838 2.3474 13.1799C1.93407 12.176 1.72366 11.1002 1.72828 10.0145C1.73291 8.92887 1.9525 7.85489 2.37436 6.85455C2.79623 5.85421 3.41203 4.94732 4.18622 4.18622C4.94732 3.41203 5.85421 2.79623 6.85455 2.37436C7.85489 1.9525 8.92887 1.73291 10.0145 1.72828C11.1002 1.72366 12.176 1.93407 13.1799 2.3474C14.1838 2.76072 15.0959 3.36877 15.8636 4.13644C16.6312 4.90412 17.2393 5.81622 17.6526 6.82012C18.0659 7.82402 18.2763 8.89984 18.2717 9.98548C18.2671 11.0711 18.0475 12.1451 17.6256 13.1454C17.2038 14.1458 16.588 15.0527 15.8138 15.8138Z" fill="#C4C4C4"/>
</svg>
