<svg width="44" height="35" viewBox="0 0 44 35" fill="none" xmlns="http://www.w3.org/2000/svg">
<path d="M0 13.7117H28.875L26.125 30.1656H3.4375L0 13.7117Z" fill="white"/>
<path d="M28.5312 0H31.625L26.125 30.1656H23.0312L28.5312 0Z" fill="white"/>
<ellipse cx="24.75" cy="30.1655" rx="4.125" ry="4.11349" fill="#6AA434"/>
<ellipse cx="4.125" cy="30.1655" rx="4.125" ry="4.11349" fill="#6AA434"/>
<rect x="35.75" width="2.74233" height="6.875" transform="rotate(90 35.75 0)" fill="white"/>
<rect x="26.125" y="15.0828" width="17.1875" height="1.37116" rx="0.685582" fill="white"/>
<rect x="26.125" y="19.1963" width="10.3125" height="1.37116" rx="0.685581" fill="white"/>
<rect x="21.3125" y="22.6243" width="10.3125" height="1.37116" rx="0.685578" fill="white"/>
<rect x="33.6875" y="22.6243" width="10.3125" height="1.37116" rx="0.685578" fill="white"/>
<rect x="29.5625" y="26.052" width="10.3125" height="1.37117" rx="0.685584" fill="white"/>
<rect x="30.9375" y="28.7944" width="3.38359" height="1.37116" rx="0.685582" fill="white"/>
<ellipse cx="24.75" cy="30.1657" rx="2.75" ry="2.74232" fill="white"/>
<ellipse cx="4.125" cy="30.1657" rx="2.75" ry="2.74232" fill="white"/>
<path d="M14.8609 14.8908C14.8609 14.8908 18.1964 11.4343 20.1431 10.6655C21.886 9.97728 23.6925 10.4565 23.6925 10.4565C23.6925 10.4565 23.3452 12.4232 22 13.7115C20.4898 15.1578 15.9814 16.6175 15.9814 16.6175L14.8609 14.8908Z" fill="white"/>
<path d="M12.6688 16.2168C12.6688 16.2168 9.67204 11.4809 7.62786 10.1444C5.79778 8.94789 3.61902 9.07122 3.61902 9.07122C3.61902 9.07122 3.55125 11.4016 4.78488 13.1907C6.16978 15.1993 10.9795 17.9278 10.9795 17.9278L12.6688 16.2168Z" fill="white"/>
<path d="M14.6357 16.643C14.6357 16.643 15.0973 13.4268 15.8622 12.2359C16.547 11.1698 17.7301 10.7203 17.7301 10.7203C17.7301 10.7203 18.3198 11.9384 18.0917 13.1774C17.8356 14.5683 15.9369 17.1498 15.9369 17.1498L14.6357 16.643Z" fill="white"/>
<path d="M19.3209 8.53913C19.3209 8.53913 18.9164 9.26198 18.2199 9.59026C17.5963 9.88417 16.9216 9.75091 16.9216 9.75091C16.9216 9.75091 17.0023 9.02054 17.4657 8.51569C17.9858 7.94894 18.7604 7.79437 18.7604 7.79437L20.0675 7.42152L19.3209 8.53913Z" fill="white"/>
<path d="M2.2 10.7693C2.65103 10.9445 2.79455 10.9898 3.3 11.5696C3.75252 12.0887 3.72751 12.8052 3.72751 12.8052C3.72751 12.8052 3.03456 12.8477 2.42179 12.5396C1.73387 12.1937 1.60199 12.0725 1.341 11.5696C1.19138 11.2813 1.11545 10.7693 1.11545 10.7693C1.11545 10.7693 1.89079 10.6492 2.2 10.7693Z" fill="white"/>
<ellipse cx="13.75" cy="13.7118" rx="2.0625" ry="2.05674" fill="white"/>
<ellipse cx="10.6562" cy="12.6834" rx="1.71875" ry="1.71395" fill="white"/>
<path d="M13.0522 9.84971C14.0001 9.72509 13.5743 10.699 13.867 10.5406C13.9897 10.4742 13.7561 9.09145 14.6895 9.34086C15.623 9.59027 14.226 10.6365 14.8004 10.79C15.0337 10.8524 15.4877 9.84971 15.8524 10.5979C16.1891 11.2887 14.859 12.2252 14.6257 12.1629C13.8966 11.9681 14.2401 12.0598 13.5111 11.865C13.2777 11.8027 12.2498 9.95519 13.0522 9.84971Z" fill="white"/>
<path d="M7.90757 9.8401C8.62126 9.18365 9.36952 10.5474 9.63035 10.2508C9.7397 10.1264 8.80001 8.04144 10.12 7.92021C11.44 7.79899 10.0701 10.2104 10.7736 10.1458C11.0595 10.1196 11.2704 9.2822 11.867 9.50007C12.7262 9.81385 11.6062 11.5965 11.3203 11.6227C10.4274 11.7047 10.4154 11.7684 9.52244 11.8504C9.23657 11.8767 7.22849 10.4647 7.90757 9.8401Z" fill="white"/>
</svg>
