<svg width="25" height="25" viewBox="0 0 25 25" fill="none" xmlns="http://www.w3.org/2000/svg">
<path d="M8.6 9.925L9.2625 10.5875C9.625 10.95 10.225 10.95 10.5875 10.5875C10.95 10.225 10.95 9.625 10.5875 9.2625L9.4875 8.1625C9 7.675 8.2125 7.675 7.725 8.1625L6.6125 9.2625C6.25 9.625 6.25 10.225 6.6125 10.5875C6.975 10.95 7.575 10.95 7.9375 10.5875L8.6 9.925V9.925ZM12.5 19.375C15.0375 19.375 17.25 17.9875 18.4375 15.9375C18.675 15.525 18.375 15 17.8875 15H7.1125C6.6375 15 6.325 15.525 6.5625 15.9375C7.75 17.9875 9.9625 19.375 12.5 19.375ZM14.4125 10.5875C14.775 10.95 15.375 10.95 15.7375 10.5875L16.4 9.925L17.0625 10.5875C17.425 10.95 18.025 10.95 18.3875 10.5875C18.75 10.225 18.75 9.625 18.3875 9.2625L17.2875 8.1625C16.8 7.675 16.0125 7.675 15.525 8.1625L14.425 9.2625C14.05 9.625 14.05 10.225 14.4125 10.5875V10.5875ZM12.4875 0C5.5875 0 0 5.5875 0 12.5C0 19.4125 5.5875 25 12.4875 25C19.3875 25 25 19.4125 25 12.5C25 5.5875 19.4 0 12.4875 0ZM12.5 22.5C6.975 22.5 2.5 18.025 2.5 12.5C2.5 6.975 6.975 2.5 12.5 2.5C18.025 2.5 22.5 6.975 22.5 12.5C22.5 18.025 18.025 22.5 12.5 22.5Z" fill="#A9CF46"/>
</svg>
