<svg width="24" height="24" viewBox="0 0 24 24" fill="none" xmlns="http://www.w3.org/2000/svg">
<path d="M22.9278 18.7151H19.5981C19.3479 18.7151 19.108 18.8133 18.9311 18.9883C18.7542 19.1632 18.6548 19.4004 18.6548 19.6477V22.9369C18.6544 22.9986 18.6727 23.0591 18.7072 23.1105C18.7417 23.162 18.791 23.2021 18.8486 23.2258C18.9063 23.2495 18.9698 23.2556 19.0311 23.2435C19.0923 23.2313 19.1485 23.2014 19.1925 23.1576L23.1479 19.2436C23.191 19.2001 23.2202 19.1451 23.232 19.0854C23.2438 19.0257 23.2376 18.9638 23.2141 18.9076C23.1907 18.8513 23.1511 18.8031 23.1002 18.7689C23.0493 18.7346 22.9894 18.7159 22.9278 18.7151Z" fill="#C4C4C4" fill-opacity="0.8"/>
<path d="M22.7423 0H1.2577C0.924135 0 0.604235 0.131014 0.368371 0.364219C0.132507 0.597425 0 0.91372 0 1.24352V22.7565C0 23.0863 0.132507 23.4026 0.368371 23.6358C0.604235 23.869 0.924135 24 1.2577 24H16.1394C16.3062 24 16.4661 23.9345 16.5841 23.8179C16.702 23.7013 16.7682 23.5431 16.7682 23.3782V19.6477C16.7682 18.9056 17.0664 18.1939 17.5971 17.6692C18.1278 17.1445 18.8475 16.8497 19.5981 16.8497H23.3712C23.5379 16.8497 23.6979 16.7842 23.8158 16.6676C23.9337 16.551 24 16.3929 24 16.228V1.24352C24 0.91372 23.8675 0.597425 23.6316 0.364219C23.3958 0.131014 23.0759 0 22.7423 0ZM13.5957 15.7026H4.37364C4.12347 15.7026 3.88354 15.6043 3.70665 15.4294C3.52975 15.2545 3.43037 15.0173 3.43037 14.7699C3.43037 14.5226 3.52975 14.2854 3.70665 14.1105C3.88354 13.9356 4.12347 13.8373 4.37364 13.8373H13.5957C13.8459 13.8373 14.0858 13.9356 14.2627 14.1105C14.4396 14.2854 14.539 14.5226 14.539 14.7699C14.539 15.0173 14.4396 15.2545 14.2627 15.4294C14.0858 15.6043 13.8459 15.7026 13.5957 15.7026ZM19.8842 11.0394H4.37364C4.12347 11.0394 3.88354 10.9411 3.70665 10.7662C3.52975 10.5913 3.43037 10.3541 3.43037 10.1067C3.43037 9.85938 3.52975 9.62216 3.70665 9.44726C3.88354 9.27235 4.12347 9.17409 4.37364 9.17409H19.8842C20.1344 9.17409 20.3743 9.27235 20.5512 9.44726C20.7281 9.62216 20.8275 9.85938 20.8275 10.1067C20.8275 10.3541 20.7281 10.5913 20.5512 10.7662C20.3743 10.9411 20.1344 11.0394 19.8842 11.0394ZM19.8842 6.37617H4.37364C4.12347 6.37617 3.88354 6.27791 3.70665 6.103C3.52975 5.9281 3.43037 5.69088 3.43037 5.44352C3.43037 5.19617 3.52975 4.95895 3.70665 4.78405C3.88354 4.60914 4.12347 4.51088 4.37364 4.51088H19.8842C20.1344 4.51088 20.3743 4.60914 20.5512 4.78405C20.7281 4.95895 20.8275 5.19617 20.8275 5.44352C20.8275 5.69088 20.7281 5.9281 20.5512 6.103C20.3743 6.27791 20.1344 6.37617 19.8842 6.37617Z" fill="#C4C4C4" fill-opacity="0.8"/>
</svg>
