<svg width="21" height="31" viewBox="0 0 21 31" fill="none" xmlns="http://www.w3.org/2000/svg">
<path fill-rule="evenodd" clip-rule="evenodd" d="M6.8545 1.14632L8.50866 7.40662C8.69245 8.18916 8.69245 9.16733 7.95727 9.5586L5.93553 10.8302C4.46517 13.08 9.70333 22.7639 12.2765 22.4705L14.2982 21.1988C15.0334 20.8076 15.7686 21.1988 16.32 21.8836L20.6391 26.481C21.3743 27.3613 20.9148 28.8286 19.904 29.4155C18.1579 30.2958 16.6875 30.7849 15.4929 30.9806C9.61143 31.7631 -2.88664 8.67825 0.60547 3.59175C1.34065 2.61358 2.53532 1.43978 4.18947 0.363786C5.01655 -0.320934 6.57881 -0.0274825 6.8545 1.14632Z" fill="#A9CF46"/>
</svg>
