<svg width="44" height="44" viewBox="0 0 44 44" fill="none" xmlns="http://www.w3.org/2000/svg">
<path fill-rule="evenodd" clip-rule="evenodd" d="M32.0225 7.00029C29.0558 5.01803 25.568 3.96 22 3.96C17.2155 3.96 12.627 5.86064 9.2438 9.24379C5.86065 12.627 3.96001 17.2155 3.96001 22C3.96001 25.568 5.01804 29.0558 7.0003 32.0225C8.98256 34.9892 11.8 37.3014 15.0964 38.6668C18.3928 40.0322 22.02 40.3894 25.5194 39.6934C29.0189 38.9973 32.2333 37.2791 34.7562 34.7562C37.2792 32.2333 38.9973 29.0188 39.6934 25.5194C40.3895 22.02 40.0322 18.3928 38.6668 15.0964C37.3014 11.8 34.9892 8.98255 32.0225 7.00029ZM9.77747 3.70767C13.3953 1.29028 17.6488 0 22 0C27.8348 0 33.4306 2.31785 37.5564 6.44365C41.6822 10.5695 44 16.1652 44 22C44 26.3512 42.7097 30.6047 40.2923 34.2225C37.875 37.8404 34.439 40.6602 30.419 42.3254C26.3991 43.9905 21.9756 44.4262 17.708 43.5773C13.4404 42.7284 9.52042 40.6331 6.44366 37.5564C3.36691 34.4796 1.27161 30.5596 0.422734 26.292C-0.426141 22.0244 0.00953223 17.6009 1.67466 13.581C3.33979 9.56099 6.15958 6.12506 9.77747 3.70767ZM19.4682 28.6319C20.0497 28.0578 20.8309 27.7309 21.648 27.7199C22.4657 27.738 23.2446 28.072 23.8214 28.652C24.3981 29.232 24.7277 30.0129 24.7412 30.8307C24.7371 31.6545 24.4059 32.443 23.8205 33.0227C23.235 33.6024 22.4433 33.9258 21.6194 33.9217C20.7955 33.9176 20.007 33.5864 19.4273 33.0009C18.8477 32.4155 18.5243 31.6237 18.5284 30.7999C18.5499 29.983 18.8867 29.2061 19.4682 28.6319ZM15.4484 13.0899C18.9728 9.07706 25.08 9.15187 28.292 13.1999C29.986 15.3031 30.2588 19.1091 27.1304 21.1023C26.7062 21.3713 26.2738 21.6295 25.8418 21.8875C25.7227 21.9586 25.6037 22.0297 25.4848 22.1011C24.772 22.5279 24.1428 22.9679 24.2 23.9711C24.2068 24.0998 24.1853 24.2284 24.1369 24.3479C24.0886 24.4674 24.0146 24.5748 23.9201 24.6625C23.8257 24.7502 23.7131 24.8161 23.5904 24.8555C23.4677 24.895 23.3378 24.907 23.21 24.8907H21.6128H20.1828C19.3908 24.9215 19.0784 24.4903 19.0476 23.7599C18.9904 22.943 19.1624 22.1264 19.544 21.4019C19.9257 20.6775 20.502 20.0739 21.208 19.6591C21.577 19.4223 21.9565 19.2014 22.336 18.9807C22.8028 18.7091 23.2694 18.4376 23.716 18.1367C25.0536 17.2567 25.0052 15.9367 23.6368 15.0567C22.904 14.5687 22.0151 14.3731 21.1452 14.5083C20.2753 14.6435 19.4877 15.0998 18.9376 15.7871C17.5598 17.4092 17.3241 17.2269 16.2779 16.4178C16.118 16.2941 15.9391 16.1558 15.7344 16.0071C14.19 14.8851 14.014 14.7179 15.4484 13.0899Z" fill="#6AA434"/>
</svg>
