<svg width="18" height="18" viewBox="0 0 18 18" fill="none" xmlns="http://www.w3.org/2000/svg">
<g clip-path="url(#clip0_517_1935)">
<path d="M17.069 16.051L12.1548 11.1369C13.2587 9.77219 13.797 8.036 13.6586 6.28622C13.5202 4.53643 12.7157 2.90645 11.411 1.7323C10.1063 0.558148 8.40077 -0.0706572 6.64613 -0.024481C4.89149 0.0216951 3.22145 0.739332 1.9803 1.98048C0.739149 3.22163 0.021512 4.89167 -0.0246641 6.64631C-0.0708403 8.40096 0.557965 10.1064 1.73211 11.4111C2.90626 12.7159 4.53625 13.5203 6.28604 13.6587C8.03582 13.7971 9.77201 13.2589 11.1367 12.155L16.051 17.0691C16.1868 17.2002 16.3686 17.2728 16.5574 17.2712C16.7462 17.2695 16.9268 17.1938 17.0603 17.0603C17.1938 16.9268 17.2695 16.7462 17.2711 16.5574C17.2728 16.3687 17.2002 16.1868 17.069 16.051ZM6.84 12.24C5.77198 12.24 4.72794 11.9233 3.83992 11.33C2.95189 10.7366 2.25976 9.89325 1.85105 8.90653C1.44234 7.91981 1.3354 6.83405 1.54376 5.78655C1.75212 4.73905 2.26642 3.77686 3.02162 3.02166C3.77683 2.26646 4.73901 1.75216 5.78651 1.5438C6.83401 1.33544 7.91977 1.44237 8.90649 1.85109C9.89321 2.2598 10.7366 2.95193 11.3299 3.83996C11.9233 4.72798 12.24 5.77202 12.24 6.84004C12.2384 8.27172 11.669 9.6443 10.6566 10.6566C9.64426 11.669 8.27168 12.2384 6.84 12.24Z" fill="#707585"/>
</g>
<defs>
<clipPath id="clip0_517_1935">
<rect width="18" height="18" fill="white"/>
</clipPath>
</defs>
</svg>
