<svg width="166" height="117" viewBox="0 0 166 117" fill="none" xmlns="http://www.w3.org/2000/svg">
<path d="M33 31.1628H98.625L92.375 68.5581H40.8125L33 31.1628Z" fill="white"/>
<path d="M97.8438 0H104.875L92.375 68.5581H85.3438L97.8438 0Z" fill="white"/>
<ellipse cx="89.25" cy="68.5581" rx="9.375" ry="9.34884" fill="#A9CF46"/>
<ellipse cx="42.375" cy="68.5581" rx="9.375" ry="9.34884" fill="#A9CF46"/>
<rect x="114.25" width="6.23256" height="15.625" transform="rotate(90 114.25 0)" fill="white"/>
<rect x="92.375" y="34.2791" width="39.0625" height="3.11628" rx="1.55814" fill="white"/>
<rect x="92.375" y="43.6279" width="23.4375" height="3.11628" rx="1.55814" fill="white"/>
<rect x="81.4375" y="51.4186" width="23.4375" height="3.11628" rx="1.55814" fill="white"/>
<rect x="109.562" y="51.4186" width="23.4375" height="3.11628" rx="1.55814" fill="white"/>
<rect x="100.188" y="59.2093" width="23.4375" height="3.11629" rx="1.55814" fill="white"/>
<rect x="103.312" y="65.4418" width="7.69" height="3.11628" rx="1.55814" fill="white"/>
<ellipse cx="89.25" cy="68.5582" rx="6.25" ry="6.23255" fill="white"/>
<ellipse cx="42.375" cy="68.5582" rx="6.25" ry="6.23255" fill="white"/>
<path d="M66.7748 33.8428C66.7748 33.8428 74.3554 25.9871 78.7798 24.2399C82.7409 22.6758 86.8466 23.7649 86.8466 23.7649C86.8466 23.7649 86.0573 28.2348 83 31.1627C79.5677 34.4498 69.3214 37.7672 69.3214 37.7672L66.7748 33.8428Z" fill="white"/>
<path d="M61.7927 36.8566C61.7927 36.8566 54.9819 26.093 50.336 23.0556C46.1768 20.3362 41.225 20.6165 41.225 20.6165C41.225 20.6165 41.071 25.9128 43.8747 29.9791C47.0222 34.544 57.9535 40.7451 57.9535 40.7451L61.7927 36.8566Z" fill="white"/>
<path d="M66.263 37.8246C66.263 37.8246 67.312 30.515 69.0505 27.8086C70.6069 25.3857 73.2958 24.364 73.2958 24.364C73.2958 24.364 74.6359 27.1323 74.1175 29.9482C73.5354 33.1095 69.2201 38.9766 69.2201 38.9766L66.263 37.8246Z" fill="white"/>
<path d="M76.911 19.407C76.911 19.407 75.9918 21.0498 74.4088 21.7959C72.9915 22.4639 71.4581 22.1611 71.4581 22.1611C71.4581 22.1611 71.6416 20.5011 72.6946 19.3537C73.8768 18.0657 75.6372 17.7144 75.6372 17.7144L78.608 16.867L76.911 19.407Z" fill="white"/>
<path d="M38 24.4755C39.0251 24.8736 39.3512 24.9766 40.5 26.2944C41.5284 27.4741 41.4716 29.1025 41.4716 29.1025C41.4716 29.1025 39.8967 29.1992 38.504 28.4989C36.9406 27.7127 36.6409 27.4372 36.0477 26.2942C35.7077 25.639 35.5351 24.4755 35.5351 24.4755C35.5351 24.4755 37.2972 24.2026 38 24.4755Z" fill="white"/>
<ellipse cx="64.25" cy="31.1628" rx="4.6875" ry="4.67442" fill="white"/>
<ellipse cx="57.2188" cy="28.8256" rx="3.90625" ry="3.89535" fill="white"/>
<path d="M62.664 22.3856C64.8185 22.1023 63.8507 24.3158 64.5158 23.9558C64.7946 23.8049 64.2639 20.6623 66.3853 21.2291C68.5067 21.7959 65.3317 24.1738 66.6372 24.5226C67.1676 24.6643 68.1994 22.3856 69.0282 24.0861C69.7934 25.656 66.7705 27.7844 66.2401 27.6427C64.5832 27.2 65.3638 27.4086 63.7069 26.9659C63.1765 26.8241 60.8404 22.6253 62.664 22.3856Z" fill="white"/>
<path d="M50.9717 22.3635C52.5937 20.8715 54.2943 23.971 54.8871 23.2969C55.1356 23.0142 53 18.2756 56 18.0001C59 17.7246 55.8865 23.2051 57.4855 23.0582C58.1351 22.9986 58.6144 21.0955 59.9703 21.5907C61.9231 22.3038 59.3776 26.3552 58.728 26.4148C56.6986 26.6012 56.6713 26.746 54.6419 26.9324C53.9922 26.992 49.4283 23.783 50.9717 22.3635Z" fill="white"/>
<path d="M13.68 93.192V111H12.504V108.048C12.008 109.024 11.312 109.776 10.416 110.304C9.52 110.832 8.504 111.096 7.368 111.096C6.2 111.096 5.144 110.824 4.2 110.28C3.256 109.736 2.512 108.984 1.968 108.024C1.44 107.064 1.176 105.968 1.176 104.736C1.176 103.504 1.44 102.408 1.968 101.448C2.512 100.472 3.256 99.72 4.2 99.192C5.144 98.648 6.2 98.376 7.368 98.376C8.488 98.376 9.488 98.64 10.368 99.168C11.264 99.696 11.968 100.432 12.48 101.376V93.192H13.68ZM7.44 110.016C8.4 110.016 9.256 109.792 10.008 109.344C10.776 108.896 11.376 108.272 11.808 107.472C12.256 106.672 12.48 105.76 12.48 104.736C12.48 103.712 12.256 102.8 11.808 102C11.376 101.2 10.776 100.576 10.008 100.128C9.256 99.68 8.4 99.456 7.44 99.456C6.48 99.456 5.616 99.68 4.848 100.128C4.096 100.576 3.496 101.2 3.048 102C2.616 102.8 2.4 103.712 2.4 104.736C2.4 105.76 2.616 106.672 3.048 107.472C3.496 108.272 4.096 108.896 4.848 109.344C5.616 109.792 6.48 110.016 7.44 110.016ZM26.5633 98.376C28.1153 98.376 29.3073 98.776 30.1393 99.576C30.9713 100.36 31.3873 101.52 31.3873 103.056V111H30.2353V108.768C29.8353 109.504 29.2513 110.08 28.4833 110.496C27.7153 110.896 26.7953 111.096 25.7233 111.096C24.3313 111.096 23.2273 110.768 22.4113 110.112C21.6113 109.456 21.2113 108.592 21.2113 107.52C21.2113 106.48 21.5793 105.64 22.3153 105C23.0673 104.344 24.2593 104.016 25.8913 104.016H30.1873V103.008C30.1873 101.84 29.8673 100.952 29.2273 100.344C28.6033 99.736 27.6833 99.432 26.4673 99.432C25.6353 99.432 24.8353 99.576 24.0673 99.864C23.3153 100.152 22.6753 100.536 22.1473 101.016L21.5473 100.152C22.1713 99.592 22.9233 99.16 23.8033 98.856C24.6833 98.536 25.6033 98.376 26.5633 98.376ZM25.8913 110.112C26.9313 110.112 27.8113 109.872 28.5313 109.392C29.2673 108.912 29.8193 108.216 30.1873 107.304V104.952H25.9153C24.6833 104.952 23.7873 105.176 23.2273 105.624C22.6833 106.072 22.4113 106.688 22.4113 107.472C22.4113 108.288 22.7153 108.936 23.3233 109.416C23.9313 109.88 24.7873 110.112 25.8913 110.112ZM46.2195 98.376C47.3875 98.376 48.4435 98.648 49.3875 99.192C50.3315 99.736 51.0675 100.488 51.5955 101.448C52.1395 102.408 52.4115 103.504 52.4115 104.736C52.4115 105.968 52.1395 107.072 51.5955 108.048C51.0675 109.008 50.3315 109.76 49.3875 110.304C48.4435 110.832 47.3875 111.096 46.2195 111.096C45.1155 111.096 44.1155 110.84 43.2195 110.328C42.3235 109.8 41.6275 109.072 41.1315 108.144V115.656H39.9315V98.472H41.0835V101.424C41.5795 100.464 42.2755 99.72 43.1715 99.192C44.0835 98.648 45.0995 98.376 46.2195 98.376ZM46.1475 110.016C47.1075 110.016 47.9715 109.792 48.7395 109.344C49.5075 108.896 50.1075 108.272 50.5395 107.472C50.9875 106.672 51.2115 105.76 51.2115 104.736C51.2115 103.712 50.9875 102.8 50.5395 102C50.1075 101.2 49.5075 100.576 48.7395 100.128C47.9715 99.68 47.1075 99.456 46.1475 99.456C45.1875 99.456 44.3235 99.68 43.5555 100.128C42.8035 100.576 42.2035 101.2 41.7555 102C41.3235 102.8 41.1075 103.712 41.1075 104.736C41.1075 105.76 41.3235 106.672 41.7555 107.472C42.2035 108.272 42.8035 108.896 43.5555 109.344C44.3235 109.792 45.1875 110.016 46.1475 110.016ZM70.6948 98.472V111H69.5428V108.312C69.1268 109.192 68.5108 109.88 67.6948 110.376C66.8788 110.856 65.9188 111.096 64.8148 111.096C63.1828 111.096 61.9028 110.64 60.9748 109.728C60.0468 108.816 59.5828 107.504 59.5828 105.792V98.472H60.7828V105.696C60.7828 107.104 61.1428 108.176 61.8628 108.912C62.5828 109.648 63.5988 110.016 64.9108 110.016C66.3188 110.016 67.4308 109.576 68.2468 108.696C69.0788 107.816 69.4948 106.632 69.4948 105.144V98.472H70.6948ZM80.5335 101.208C80.9175 100.296 81.5175 99.6 82.3335 99.12C83.1495 98.624 84.1415 98.376 85.3095 98.376V99.552L85.0215 99.528C83.6295 99.528 82.5415 99.968 81.7575 100.848C80.9735 101.712 80.5815 102.92 80.5815 104.472V111H79.3815V98.472H80.5335V101.208ZM96.1948 94.128C94.6268 94.128 93.8428 94.968 93.8428 96.648V98.472H97.8508V99.504H93.8668V111H92.6668V99.504H90.3628V98.472H92.6668V96.552C92.6668 95.496 92.9708 94.656 93.5788 94.032C94.1868 93.408 95.0428 93.096 96.1468 93.096C96.6268 93.096 97.0828 93.168 97.5148 93.312C97.9628 93.44 98.3308 93.64 98.6188 93.912L98.1388 94.824C97.6268 94.36 96.9788 94.128 96.1948 94.128ZM106.976 101.208C107.36 100.296 107.96 99.6 108.776 99.12C109.592 98.624 110.584 98.376 111.752 98.376V99.552L111.464 99.528C110.072 99.528 108.984 99.968 108.2 100.848C107.416 101.712 107.024 102.92 107.024 104.472V111H105.824V98.472H106.976V101.208ZM129.125 105.024H118.349C118.381 106 118.629 106.872 119.093 107.64C119.557 108.392 120.181 108.976 120.965 109.392C121.765 109.808 122.661 110.016 123.653 110.016C124.469 110.016 125.221 109.872 125.909 109.584C126.613 109.28 127.197 108.84 127.661 108.264L128.357 109.056C127.813 109.712 127.125 110.216 126.293 110.568C125.477 110.92 124.589 111.096 123.629 111.096C122.381 111.096 121.269 110.824 120.293 110.28C119.317 109.736 118.549 108.984 117.989 108.024C117.445 107.064 117.173 105.968 117.173 104.736C117.173 103.52 117.429 102.432 117.941 101.472C118.469 100.496 119.189 99.736 120.101 99.192C121.013 98.648 122.037 98.376 123.173 98.376C124.309 98.376 125.325 98.648 126.221 99.192C127.133 99.72 127.845 100.464 128.357 101.424C128.885 102.384 129.149 103.472 129.149 104.688L129.125 105.024ZM123.173 99.432C122.293 99.432 121.501 99.632 120.797 100.032C120.093 100.416 119.525 100.968 119.093 101.688C118.677 102.392 118.437 103.192 118.373 104.088H127.973C127.925 103.192 127.685 102.392 127.253 101.688C126.821 100.984 126.253 100.432 125.549 100.032C124.845 99.632 124.053 99.432 123.173 99.432ZM139.629 111.096C138.621 111.096 137.661 110.944 136.749 110.64C135.837 110.336 135.125 109.952 134.613 109.488L135.165 108.528C135.677 108.96 136.333 109.32 137.133 109.608C137.949 109.896 138.797 110.04 139.677 110.04C140.941 110.04 141.869 109.832 142.461 109.416C143.069 109 143.373 108.424 143.373 107.688C143.373 107.16 143.205 106.744 142.869 106.44C142.549 106.136 142.149 105.912 141.669 105.768C141.189 105.624 140.525 105.472 139.677 105.312C138.685 105.136 137.885 104.944 137.277 104.736C136.669 104.528 136.149 104.192 135.717 103.728C135.285 103.264 135.069 102.624 135.069 101.808C135.069 100.816 135.477 100 136.293 99.36C137.125 98.704 138.301 98.376 139.821 98.376C140.621 98.376 141.413 98.488 142.197 98.712C142.981 98.936 143.621 99.232 144.117 99.6L143.565 100.56C143.053 100.192 142.469 99.912 141.813 99.72C141.157 99.528 140.485 99.432 139.797 99.432C138.629 99.432 137.749 99.648 137.157 100.08C136.565 100.512 136.269 101.08 136.269 101.784C136.269 102.344 136.437 102.784 136.773 103.104C137.109 103.408 137.517 103.64 137.997 103.8C138.493 103.944 139.181 104.104 140.061 104.28C141.037 104.456 141.821 104.648 142.413 104.856C143.021 105.048 143.533 105.368 143.949 105.816C144.365 106.264 144.573 106.88 144.573 107.664C144.573 108.704 144.141 109.536 143.277 110.16C142.413 110.784 141.197 111.096 139.629 111.096ZM157.642 98.376C159.21 98.376 160.45 98.832 161.362 99.744C162.274 100.656 162.73 101.968 162.73 103.68V111H161.53V103.776C161.53 102.368 161.17 101.296 160.45 100.56C159.746 99.824 158.754 99.456 157.474 99.456C156.002 99.456 154.842 99.896 153.994 100.776C153.146 101.656 152.722 102.84 152.722 104.328V111H151.522V93.192H152.722V101.088C153.154 100.224 153.794 99.56 154.642 99.096C155.49 98.616 156.49 98.376 157.642 98.376Z" fill="white"/>
</svg>
