<svg width="100" height="78" viewBox="0 0 100 78" fill="none" xmlns="http://www.w3.org/2000/svg">
<path d="M65.4688 0H72.5L61 59H53.9688L65.4688 0Z" fill="#A9CF46"/>
<path fill-rule="evenodd" clip-rule="evenodd" d="M0 31.1628H65.625L60.7464 60.3527C59.4115 59.6237 57.8793 59.2092 56.25 59.2092C51.0723 59.2092 46.875 63.3948 46.875 68.5581V68.5582H18.75C18.75 68.5581 18.75 68.5581 18.75 68.5581C18.75 63.3948 14.5527 59.2092 9.375 59.2092C8.18163 59.2092 7.04033 59.4316 5.9905 59.837L0 31.1628Z" fill="#A9CF46"/>
<rect x="81.25" width="6.23256" height="15.625" transform="rotate(90 81.25 0)" fill="#A9CF46"/>
<rect x="59.375" y="34.2791" width="39.0625" height="3.11628" rx="1.55814" fill="#A9CF46"/>
<rect x="59.375" y="43.6279" width="23.4375" height="3.11628" rx="1.55814" fill="#A9CF46"/>
<rect x="48.4375" y="51.4187" width="23.4375" height="3.11628" rx="1.55814" fill="#A9CF46"/>
<rect x="76.5625" y="51.4187" width="23.4375" height="3.11628" rx="1.55814" fill="#A9CF46"/>
<rect x="67.1875" y="59.2092" width="23.4375" height="3.11629" rx="1.55814" fill="#A9CF46"/>
<rect x="70.3125" y="65.4419" width="7.69" height="3.11628" rx="1.55814" fill="#A9CF46"/>
<ellipse cx="56.25" cy="68.5582" rx="6.25" ry="6.23255" fill="#A9CF46"/>
<ellipse cx="9.375" cy="68.5582" rx="6.25" ry="6.23255" fill="#A9CF46"/>
<path d="M33.7748 33.8428C33.7748 33.8428 41.3554 25.9871 45.7798 24.2399C49.7409 22.6758 53.8466 23.7648 53.8466 23.7648C53.8466 23.7648 53.0573 28.2348 50 31.1627C46.5677 34.4497 36.3214 37.7672 36.3214 37.7672L33.7748 33.8428Z" fill="#A9CF46"/>
<path d="M28.7928 36.8566C28.7928 36.8566 21.9819 26.093 17.3361 23.0556C13.1768 20.3362 8.22508 20.6165 8.22508 20.6165C8.22508 20.6165 8.07105 25.9128 10.8747 29.9791C14.0223 34.544 24.9535 40.7451 24.9535 40.7451L28.7928 36.8566Z" fill="#A9CF46"/>
<path d="M33.263 37.8245C33.263 37.8245 34.312 30.5149 36.0505 27.8085C37.6069 25.3856 40.2958 24.3639 40.2958 24.3639C40.2958 24.3639 41.6359 27.1322 41.1175 29.9481C40.5354 33.1094 36.2201 38.9765 36.2201 38.9765L33.263 37.8245Z" fill="#A9CF46"/>
<path d="M43.911 19.4071C43.911 19.4071 42.9918 21.0499 41.4088 21.796C39.9915 22.4639 38.4581 22.1611 38.4581 22.1611C38.4581 22.1611 38.6416 20.5012 39.6946 19.3538C40.8768 18.0657 42.6372 17.7144 42.6372 17.7144L45.608 16.867L43.911 19.4071Z" fill="#A9CF46"/>
<path d="M4.99999 24.4755C6.02505 24.8736 6.35122 24.9766 7.49999 26.2944C8.52844 27.4741 8.47159 29.1025 8.47159 29.1025C8.47159 29.1025 6.8967 29.1992 5.50405 28.4989C3.94061 27.7127 3.64087 27.4372 3.04771 26.2942C2.70767 25.639 2.5351 24.4755 2.5351 24.4755C2.5351 24.4755 4.29723 24.2026 4.99999 24.4755Z" fill="#A9CF46"/>
<ellipse cx="31.25" cy="31.1627" rx="4.6875" ry="4.67442" fill="#A9CF46"/>
<ellipse cx="24.2188" cy="28.8255" rx="3.90625" ry="3.89535" fill="#A9CF46"/>
<path d="M29.664 22.3857C31.8185 22.1024 30.8507 24.3158 31.5158 23.9559C31.7946 23.8049 31.2639 20.6623 33.3853 21.2292C35.5067 21.796 32.3317 24.1739 33.6372 24.5227C34.1676 24.6644 35.1994 22.3857 36.0282 24.0862C36.7934 25.656 33.7705 27.7845 33.2401 27.6428C31.5832 27.2001 32.3638 27.4087 30.7069 26.9659C30.1765 26.8242 27.8404 22.6254 29.664 22.3857Z" fill="#A9CF46"/>
<path d="M17.9717 22.3634C19.5937 20.8714 21.2943 23.9709 21.8871 23.2968C22.1357 23.0141 20 18.2755 23 18C26 17.7245 22.8865 23.205 24.4855 23.0581C25.1351 22.9985 25.6144 21.0954 26.9704 21.5906C28.9231 22.3037 26.3777 26.3551 25.7281 26.4147C23.6986 26.6011 23.6713 26.7459 21.6419 26.9323C20.9922 26.9919 16.4284 23.7829 17.9717 22.3634Z" fill="#A9CF46"/>
</svg>
